<?xml version="1.0" encoding="UTF-8" standalone="no"?>
<!-- Created with Inkscape (http://www.inkscape.org/) -->

<svg
   width="210mm"
   height="297mm"
   viewBox="0 0 210 297"
   version="1.1"
   id="svg5"
   inkscape:version="1.2.1 (9c6d41e410, 2022-07-14, custom)"
   sodipodi:docname="airman.svg"
   xmlns:inkscape="http://www.inkscape.org/namespaces/inkscape"
   xmlns:sodipodi="http://sodipodi.sourceforge.net/DTD/sodipodi-0.dtd"
   xmlns="http://www.w3.org/2000/svg"
   xmlns:svg="http://www.w3.org/2000/svg">
  <sodipodi:namedview
     id="namedview7"
     pagecolor="#ffffff"
     bordercolor="#666666"
     borderopacity="1.0"
     inkscape:showpageshadow="2"
     inkscape:pageopacity="0.0"
     inkscape:pagecheckerboard="0"
     inkscape:deskcolor="#d1d1d1"
     inkscape:document-units="mm"
     showgrid="false"
     inkscape:zoom="14.600995"
     inkscape:cx="156.77014"
     inkscape:cy="378.33039"
     inkscape:window-width="1904"
     inkscape:window-height="1064"
     inkscape:window-x="4"
     inkscape:window-y="4"
     inkscape:window-maximized="1"
     inkscape:current-layer="text236" />
  <defs
     id="defs2" />
  <g
     inkscape:label="Layer 1"
     inkscape:groupmode="layer"
     id="layer1">
    <g
       aria-label="AIRMAN"
       id="text236"
       style="font-size:10.5833px;line-height:1.25;font-family:Cheri;-inkscape-font-specification:Cheri;fill:none;stroke-width:0.264583"
       transform="matrix(0.55992032,0,0,0.55992032,14.694884,43.580667)">
      <path
         d="m 33.138467,103.30814 q -0.107551,0.0186 -0.634184,0.0667 l -0.100135,-0.77511 -0.496963,0.0297 -0.103844,0.76769 -0.593388,-0.0816 0.641602,-2.4774 0.663853,-0.0297 z m -0.778824,-1.08664 -0.233646,-0.67498 -0.181726,0.67869 z"
         style="stroke:#000000;stroke-width:0.136455;stroke-dasharray:none"
         id="path418" />
      <path
         d="m 34.224404,100.84184 -0.07788,2.53673 -0.608223,-0.0371 -0.02596,-2.41435 z"
         style="stroke:#000000;stroke-width:0.136455;stroke-dasharray:none"
         id="path420" />
      <path
         id="path422"
         style="stroke:#000000;stroke-width:0.136455;stroke-dasharray:none"
         d="m 35.41563,100.79612 c -0.205213,0 -0.441261,0.0321 -0.708286,0.0964 v 2.46606 l 0.641662,-0.0408 -0.04463,-0.92336 c 0.04945,-0.0124 0.09651,-0.0184 0.14101,-0.0184 0.58183,0.33111 0.519938,0.88971 0.563395,1.39555 l 0.106405,2.50585 0.604468,-0.0889 c -0.05687,-0.55383 -0.08397,-0.95426 -0.0815,-1.20151 0,-0.18296 0.0271,-0.34018 0.0815,-0.47122 0.08654,-0.21509 0.23378,-0.32493 0.441467,-0.32989 0.182961,-0.005 0.271765,0.31774 0.26682,0.968 l -0.0681,1.07112 0.652659,-0.0666 c -0.02472,-0.83075 0.02129,-1.23087 0.01635,-1.44598 -0.0049,-0.24228 -0.06913,-0.46338 -0.192758,-0.66364 -0.165654,-0.26949 -0.404519,-0.40427 -0.716048,-0.40427 -0.21263,0 -0.399128,0.0692 -0.559838,0.20763 -0.03167,-0.41352 -0.0217,-0.85695 -0.169147,-1.21281 -0.08406,-0.18791 -0.212444,-0.34014 -0.385514,-0.45635 0.207685,-0.13598 0.30397,-0.36704 0.289135,-0.69341 0,-0.13351 -0.02852,-0.24833 -0.08538,-0.34476 -0.135985,-0.23241 -0.400549,-0.34865 -0.793669,-0.34865 z m -0.0333,0.42626 c 0.299167,0 0.457471,0.0742 0.474778,0.22251 0.0074,0.33626 -0.138418,0.50454 -0.437586,0.50454 -0.05192,0 -0.107545,-0.006 -0.166883,-0.0184 l -0.02976,-0.70117 c 0.05687,-0.005 0.109997,-0.007 0.159447,-0.007 z"
         sodipodi:nodetypes="sccccccccccccccccscccccsscsccssc" />
      <path
         d="m 33.826863,106.19962 -0.767696,0.0631 c 0,-0.29669 0.04821,-0.66757 0.144639,-1.1126 0.02719,-0.14587 0.04079,-0.28681 0.04079,-0.42279 0,-0.34614 -0.09148,-0.51921 -0.274443,-0.51921 -0.170599,0 -0.279386,0.20768 -0.326363,0.62305 -0.04204,0.37829 -0.06305,0.87897 -0.06305,1.50202 l -0.745444,-0.0964 0.207686,-1.08294 c 0.01731,-0.12115 0.02596,-0.24354 0.02596,-0.36717 0,-0.40547 -0.09766,-0.60575 -0.292987,-0.6008 -0.257135,0.005 -0.356473,0.26485 -0.465261,0.77911 -0.0049,0.0569 -0.0074,0.1162 -0.0074,0.17802 0,0.15081 0.01978,0.34614 0.05934,0.58596 0.03956,0.24725 0.06057,0.39931 0.06305,0.45618 l -0.652729,0.0853 -0.06676,-2.52931 0.53405,-0.0222 0.01113,0.14093 c 0.163182,-0.1434 0.268702,-0.2154 0.483805,-0.2154 0.249718,0 0.453695,0.0878 0.611931,0.26333 0.145876,-0.18297 0.339963,-0.27445 0.582265,-0.27445 0.314001,0 0.553828,0.13722 0.719484,0.41167 0.131039,0.21509 0.189141,0.43886 0.174307,0.67127 -0.01484,0.21016 -0.02226,0.43762 -0.02226,0.6824 0,0.28185 0.0087,0.54888 0.02596,0.80107 z"
         style="stroke:#000000;stroke-width:0.136455;stroke-dasharray:none"
         id="path424"
         sodipodi:nodetypes="cccssccccsccsccccccscsccssc" />
      <path
         d="m 35.918562,106.14028 q -0.107552,0.0185 -0.634184,0.0667 l -0.100135,-0.77511 -0.496963,0.0297 -0.103844,0.76769 -0.593388,-0.0816 0.641601,-2.4774 0.663855,-0.0297 z m -0.778823,-1.08664 -0.233647,-0.67497 -0.181725,0.67868 z"
         style="stroke:#000000;stroke-width:0.136455;stroke-dasharray:none"
         id="path426" />
      <text
         xml:space="preserve"
         style="font-style:normal;font-weight:normal;font-size:18.9015px;line-height:1.25;font-family:sans-serif;fill:#000000;fill-opacity:1;stroke:none;stroke-width:0.125025"
         x="27.26856"
         y="79.211845"
         id="text444"><tspan
           sodipodi:role="line"
           id="tspan442"
           style="stroke-width:0.125025"></tspan></text>
    </g>
  </g>
</svg>
